<?xml version="1.0" encoding="UTF-8"?>
<svg width="108px" height="35px" viewBox="0 0 108 35" version="1.1" xmlns="http://www.w3.org/2000/svg" xmlns:xlink="http://www.w3.org/1999/xlink">
    <!-- Generator: Sketch 50.2 (55047) - http://www.bohemiancoding.com/sketch -->
    <title>ultralatch2</title>
    <desc>Created with Sketch.</desc>
    <defs></defs>
    <g id="Page-1" stroke="none" stroke-width="1" fill="none" fill-rule="evenodd">
        <g id="ultralatch2" transform="translate(-6.000000, -5.000000)">
            <rect id="Rectangle" fill-opacity="0" fill="#D8D8D8" x="0" y="0" width="121" height="48"></rect>
            <rect id="underline" fill="#F2F2F2" fill-rule="nonzero" x="6.97611891" y="27.0687754" width="106.099882" height="1"></rect>
            <g id="shapes" transform="translate(6.000000, 5.000000)" fill="#F2F2F2" fill-rule="nonzero">
                <g id="Group">
                    <path d="M3.90447565,11.2890274 C3.81959575,11.7983069 3.77715579,12.2651463 3.77715579,12.7319858 C3.77715579,14.0476244 4.11667541,15.0237433 4.79571466,15.6603426 C5.4747539,16.2969418 6.45087281,16.5940215 7.68163144,16.5940215 C8.91239007,16.5940215 9.88850899,16.3393818 10.6099882,15.7876624 C11.3314674,15.235943 11.8407468,14.6417837 12.1378265,13.8778645 C12.4349061,13.1563853 12.6895459,12.3075863 12.8168657,11.4163473 L14.1749442,2.84347683 L11.8831868,2.3341974 L12.1378265,1.31563853 L18.5038194,1.31563853 L18.2067397,2.3341974 L15.9149823,2.84347683 L14.5569038,11.2041475 C13.7929846,15.8301024 11.1192676,18.1642998 6.57819267,18.1642998 C5.13523428,18.1642998 3.90447565,17.8247801 2.80103688,17.1033009 C1.74003806,16.3818218 1.18831868,15.1086232 1.18831868,13.2412653 C1.18831868,12.7319858 1.23075863,12.1802664 1.31563853,11.628547 L2.71615697,2.88591679 L0.339519622,2.3341974 L0.636599291,1.31563853 L7.8089513,1.31563853 L7.55431159,2.3341974 L5.22011419,2.84347683 L3.90447565,11.2890274 Z" id="Shape"></path>
                    <path d="M20.0740976,1.86735792 L20.2014175,0.806359102 C20.7955768,0.509279433 21.4746161,0.381959575 22.2385352,0.381959575 C22.8751345,0.381959575 23.341974,0.509279433 23.5966137,0.763919149 C23.8512534,1.01855887 23.9785733,1.40051844 23.9785733,1.95223783 C23.9785733,2.24931749 23.9361333,2.58883712 23.8936934,2.92835674 L22.3234151,12.8168657 C22.1112154,14.0900643 22.0263355,15.0237433 22.0263355,15.5330227 C22.0263355,15.8725423 22.1112154,16.0847421 22.2385352,16.2545019 C22.3658551,16.4242617 22.5780549,16.5091416 22.7902546,16.5091416 C23.0448943,16.5515816 23.341974,16.5515816 23.7239336,16.5515816 L23.6390537,17.6125804 C23.4268539,17.7399002 23.1297742,17.8247801 22.7902546,17.9096601 C22.450735,17.99454 22.1112154,18.0369799 21.7716958,18.0369799 C21.0926565,18.0369799 20.5833771,17.9096601 20.2862974,17.6125804 C19.9892177,17.3155007 19.8618979,16.8911012 19.8618979,16.2545019 C19.8618979,15.9998622 19.9043378,15.6603426 19.9467778,15.235943 L21.8141357,2.97079669 C21.8141357,2.84347683 21.8565757,2.71615697 21.8565757,2.67371702 C21.8565757,2.3341974 21.7716958,2.12199764 21.559496,2.03711773 C21.3472962,1.90979787 21.0502166,1.86735792 20.668257,1.86735792 L20.0740976,1.86735792 Z" id="Shape"></path>
                    <path d="M27.840609,13.2412653 C27.7557291,13.8354246 27.7132891,14.344704 27.7132891,14.6842236 C27.7132891,15.278383 27.840609,15.6603426 28.0952487,15.8725423 C28.3498884,16.0847421 28.731848,16.2120619 29.3260073,16.2120619 C29.7928468,16.2120619 30.2596863,16.0847421 30.7265258,15.7876624 L30.8962856,16.5091416 C30.514326,17.018421 30.0899265,17.4003806 29.5806471,17.6974603 C29.0713676,17.99454 28.5196482,18.1218598 27.9254889,18.1218598 C27.1191298,18.1218598 26.5674104,17.9096601 26.1854508,17.4852605 C25.8034913,17.060861 25.6337314,16.3818218 25.6337314,15.5330227 C25.6337314,15.1510631 25.6761714,14.6417837 25.7610513,14.0476244 L26.7371702,7.7240714 L25.4215317,7.7240714 L25.5488515,6.45087281 L26.94937,6.45087281 L27.4162095,3.56495603 L29.4533272,3.56495603 L28.9864877,6.45087281 L31.8299645,6.45087281 L31.5753248,7.7240714 L28.689408,7.7240714 L27.840609,13.2412653 Z" id="Shape"></path>
                    <path d="M35.6920002,17.8247801 L33.4851227,17.8247801 L34.7158813,8.57287045 C34.7158813,8.5304305 34.7158813,8.40311064 34.7158813,8.31823073 C34.7158813,7.97871111 34.6310014,7.7240714 34.4188017,7.63919149 C34.2066019,7.51187163 33.9095222,7.46943168 33.5275627,7.46943168 L32.9758433,7.46943168 L33.1031631,6.40843286 C33.6973225,6.11135319 34.3763617,5.98403333 35.1402809,5.98403333 C35.7768802,5.98403333 36.2437196,6.11135319 36.5407993,6.36599291 C36.837879,6.62063263 37.0076388,7.0025922 37.0076388,7.51187163 C37.0076388,7.68163144 36.9651988,7.93627116 36.9227589,8.27579078 L36.5407993,9.76118913 L36.6681192,9.76118913 C36.8803189,9.12458984 37.1349586,8.5304305 37.4320383,7.97871111 C37.7715579,7.38455177 38.1110776,6.91771229 38.4930371,6.53575272 C38.8749967,6.15379315 39.2993962,5.98403333 39.7237958,5.98403333 C40.1057553,5.98403333 40.445275,6.11135319 40.6574747,6.32355296 C40.8696745,6.53575272 40.9969943,6.87527234 40.9969943,7.21479196 C40.9969943,7.51187163 40.9545544,7.8089513 40.8272345,8.14847092 C40.6999147,8.44555059 40.5301549,8.74263026 40.2755151,8.99726998 C40.1057553,8.82751017 39.9359955,8.70019031 39.7662357,8.65775036 C39.5964759,8.6153104 39.3842761,8.57287045 39.1296364,8.57287045 C38.620357,8.57287045 38.1110776,8.82751017 37.6442381,9.37922955 C37.1773986,9.88850899 36.795439,10.4826683 36.4983593,11.1192676 L35.6920002,17.8247801 Z" id="Shape"></path>
                    <path d="M49.4425449,12.8168657 C49.2303452,14.0900643 49.1454653,14.9813033 49.1454653,15.4481428 C49.1454653,15.8301024 49.1879052,16.127182 49.3152251,16.2545019 C49.400105,16.4242617 49.5698648,16.5091416 49.8245045,16.5515816 L50.8430634,16.7213414 L50.5884237,17.6550203 C49.8245045,17.9521 49.1454653,18.0794199 48.5937459,18.0794199 C48.0844664,18.0794199 47.6600669,17.9521 47.3205473,17.6974603 C46.9810277,17.4428206 46.8537078,17.060861 46.8537078,16.6364615 C46.8537078,16.4667017 46.8961478,16.2969418 46.9385877,16.127182 L46.7688279,16.127182 C46.4293083,16.7213414 46.0049088,17.1881809 45.4531894,17.5701404 C44.90147,17.9521 44.2648707,18.1642998 43.6707114,18.1642998 C43.118992,18.1642998 42.6521525,17.99454 42.2701929,17.6974603 C41.8882333,17.4003806 41.5487137,16.9335411 41.336514,16.3393818 C41.1243142,15.7452225 40.9969943,15.0661832 40.9969943,14.2598241 C40.9969943,12.604666 41.336514,11.1617076 42.0579932,9.93094894 C42.7370324,8.70019031 43.6282714,7.76651135 44.6892702,7.12991206 C45.750269,6.49331277 46.7688279,6.15379315 47.7873868,6.15379315 C49.1879052,6.15379315 50.0791442,6.40843286 50.4611038,6.87527234 L49.4425449,12.8168657 Z M46.9810277,15.1510631 L48.1269064,7.93627116 C47.7873868,7.63919149 47.2781073,7.46943168 46.5566281,7.46943168 C45.8775889,7.46943168 45.2834296,7.76651135 44.7741501,8.40311064 C44.2648707,8.99726998 43.8404712,9.80362908 43.5433915,10.737308 C43.2463118,11.670987 43.118992,12.6471059 43.118992,13.6232248 C43.118992,14.5993437 43.2463118,15.3208229 43.5433915,15.7876624 C43.7980312,16.2545019 44.2224307,16.4667017 44.7317102,16.4667017 C45.1985497,16.4667017 45.5805092,16.3393818 45.9624688,16.127182 C46.2595485,15.8725423 46.641508,15.5754627 46.9810277,15.1510631 Z" id="Shape"></path>
                    <polygon id="Shape" points="61.7925712 1.31563853 61.5379315 2.3341974 59.1612941 2.97079669 56.9968565 16.5515816 63.0233298 16.5515816 64.8482478 13.2412653 65.9516865 13.4110251 65.1877674 17.8247801 51.9465021 17.8247801 52.2011419 16.8486612 54.5353393 16.2120619 56.6148969 2.97079669 54.1958196 2.29175745 54.5353393 1.27319858 61.7925712 1.27319858"></polygon>
                    <path d="M75.373356,12.8168657 C75.1611563,14.0900643 75.0762764,14.9813033 75.0762764,15.4481428 C75.0762764,15.8301024 75.1187163,16.127182 75.2460362,16.2545019 C75.373356,16.3818218 75.5006759,16.5091416 75.7553156,16.5515816 L76.7738745,16.7213414 L76.5192348,17.6550203 C75.7553156,17.9521 75.0762764,18.0794199 74.524557,18.0794199 C74.0152776,18.0794199 73.590878,17.9521 73.2513584,17.6974603 C72.9118388,17.4428206 72.7845189,17.060861 72.7845189,16.6364615 C72.7845189,16.4667017 72.8269589,16.2969418 72.8693988,16.127182 L72.699639,16.127182 C72.3601194,16.7213414 71.9357199,17.1881809 71.3840005,17.5701404 C70.8322811,17.9521 70.1956818,18.1642998 69.6015225,18.1642998 C69.0498031,18.1642998 68.5829636,17.99454 68.201004,17.6974603 C67.8190445,17.4003806 67.4795248,16.9335411 67.2673251,16.3393818 C67.0551253,15.7452225 66.9278055,15.0661832 66.9278055,14.2598241 C66.9278055,12.604666 67.2673251,11.1617076 67.9888043,9.93094894 C68.6678435,8.70019031 69.5590825,7.76651135 70.6200813,7.12991206 C71.6810802,6.49331277 72.699639,6.15379315 73.7181979,6.15379315 C75.1187163,6.15379315 76.0099553,6.40843286 76.3919149,6.87527234 L75.373356,12.8168657 Z M72.9542787,15.1510631 L74.1001575,7.93627116 C73.7606378,7.63919149 73.2513584,7.46943168 72.5298792,7.46943168 C71.85084,7.46943168 71.2566806,7.76651135 70.7474012,8.40311064 C70.2381218,9.03970993 69.8137222,9.80362908 69.5166426,10.737308 C69.2195629,11.670987 69.092243,12.6471059 69.092243,13.6232248 C69.092243,14.5993437 69.2195629,15.3208229 69.5166426,15.7876624 C69.7712823,16.2545019 70.1956818,16.4667017 70.7049612,16.4667017 C71.1718007,16.4667017 71.5537603,16.3393818 71.9357199,16.127182 C72.2327995,15.8725423 72.5723192,15.5754627 72.9542787,15.1510631 Z" id="Shape"></path>
                    <path d="M80.6359102,13.2412653 C80.5510303,13.8354246 80.5085903,14.344704 80.5085903,14.6842236 C80.5085903,15.278383 80.6359102,15.6603426 80.8905499,15.8725423 C81.1451896,16.0847421 81.5271492,16.2120619 82.1213085,16.2120619 C82.588148,16.2120619 83.0549875,16.0847421 83.521827,15.7876624 L83.6915868,16.5091416 C83.3096272,17.018421 82.8852277,17.4003806 82.3759482,17.6974603 C81.8666688,17.99454 81.3149494,18.1218598 80.7207901,18.1218598 C79.914431,18.1218598 79.3627116,17.9096601 78.980752,17.4852605 C78.5987925,17.060861 78.4290326,16.3818218 78.4290326,15.5330227 C78.4290326,15.1510631 78.4714726,14.6417837 78.5563525,14.0476244 L79.5324714,7.7240714 L78.2168329,7.7240714 L78.3441527,6.45087281 L79.7446712,6.45087281 L80.2115107,3.56495603 L82.2486284,3.56495603 L81.7817889,6.45087281 L84.7101456,6.45087281 L84.4555059,7.7240714 L81.5695891,7.7240714 L80.6359102,13.2412653 Z" id="Shape"></path>
                    <path d="M90.1848995,16.4242617 C91.0336986,16.4242617 91.9673776,16.0847421 93.0283764,15.4481428 L93.367896,16.2545019 C92.9010565,16.8062213 92.2644572,17.2306208 91.5005381,17.6125804 C90.7366189,17.99454 90.0151397,18.1642998 89.2936605,18.1642998 C88.4873014,18.1642998 87.7658222,17.99454 87.1716629,17.6550203 C86.5775036,17.3155007 86.1106641,16.8486612 85.7711445,16.169622 C85.4316248,15.4905827 85.261865,14.6842236 85.261865,13.7505447 C85.261865,12.3075863 85.5589447,11.0343877 86.195544,9.84606903 C86.8321433,8.65775036 87.6385024,7.76651135 88.6570613,7.08747211 C89.6756201,6.40843286 90.694179,6.06891324 91.7551778,6.06891324 C92.5190969,6.06891324 93.1132563,6.23867305 93.5800958,6.62063263 C94.0044953,7.0025922 94.2166951,7.51187163 94.2166951,8.14847092 C94.2166951,8.5304305 94.0469352,8.86995012 93.7074156,9.08214988 C93.367896,9.29434965 92.9859364,9.46410946 92.476657,9.50654941 C92.3068972,8.99726998 92.1795773,8.6153104 92.0522575,8.31823073 C91.9249376,8.02115107 91.7551778,7.8089513 91.542978,7.59675154 C91.3307783,7.38455177 91.0336986,7.29967187 90.651739,7.29967187 C89.9726998,7.29967187 89.3785404,7.59675154 88.911701,8.14847092 C88.4448615,8.70019031 88.1053419,9.42166951 87.8931421,10.2704686 C87.6809423,11.1192676 87.5536225,11.9256267 87.5536225,12.7319858 C87.5536225,13.9627444 87.7658222,14.8539835 88.1902218,15.4481428 C88.6146213,16.127182 89.2512206,16.4242617 90.1848995,16.4242617 Z" id="Shape"></path>
                    <path d="M97.2299317,17.8247801 L95.0654941,17.8247801 L97.3148116,2.97079669 C97.3148116,2.84347683 97.3572516,2.71615697 97.3572516,2.67371702 C97.3572516,2.3341974 97.2723717,2.12199764 97.0601719,1.99467778 C96.8479721,1.86735792 96.5508925,1.82491797 96.1689329,1.82491797 L95.6172135,1.82491797 L95.7445334,0.763919149 C96.3386927,0.46683948 97.0177319,0.339519622 97.7816511,0.339519622 C98.4182504,0.339519622 98.8850899,0.46683948 99.1397296,0.721479196 C99.3943693,0.976118913 99.5216892,1.35807849 99.5216892,1.90979787 C99.5216892,2.12199764 99.4792492,2.46151726 99.4368092,2.88591679 L98.8850899,6.57819267 L98.5031303,8.23335083 L98.6728901,8.23335083 C99.1397296,7.63919149 99.691449,7.08747211 100.370488,6.66307258 C101.049527,6.1962331 101.771007,5.98403333 102.492486,5.98403333 C103.256405,5.98403333 103.808124,6.1962331 104.190084,6.57819267 C104.572044,6.96015225 104.784243,7.59675154 104.784243,8.40311064 C104.784243,8.78507021 104.741803,9.20946974 104.656923,9.67630922 L104.190084,12.7744258 C103.977884,14.0476244 103.893004,14.9813033 103.893004,15.4905827 C103.893004,15.8301024 103.977884,16.0423021 104.105204,16.2120619 C104.232524,16.3818218 104.444724,16.4667017 104.656923,16.4667017 C104.869123,16.5091416 105.166203,16.5091416 105.548162,16.5091416 L105.463283,17.5701404 C105.251083,17.6974603 104.954003,17.7823402 104.614483,17.8672201 C104.274964,17.9521 103.935444,17.99454 103.595925,17.99454 C102.916885,17.99454 102.407606,17.8672201 102.110526,17.5701404 C101.813447,17.2730608 101.643687,16.8486612 101.643687,16.2545019 C101.643687,15.9574222 101.686127,15.6179026 101.728567,15.1935031 L102.407606,10.8221879 C102.492486,10.3553485 102.534926,9.93094894 102.534926,9.59142932 C102.534926,8.48799055 102.025646,7.89383121 101.007087,7.89383121 C100.455368,7.89383121 99.9460887,7.97871111 99.5641291,8.19091088 C99.1821695,8.40311064 98.80021,8.65775036 98.4606903,8.99726998 L97.2299317,17.8247801 Z" id="Shape"></path>
                </g>
            </g>
            <g id="bySoss" transform="translate(72.206326, 30.039572)" fill-rule="nonzero">
                <path d="M35.6920002,9.08214988 L4.71083475,9.08214988 C2.20687754,9.08214988 0.169759811,7.04503215 0.169759811,4.54107494 C0.169759811,2.03711773 2.20687754,0 4.71083475,0 L35.6920002,0 C38.1959575,0 40.2330752,2.03711773 40.2330752,4.54107494 C40.2330752,7.04503215 38.1959575,9.08214988 35.6920002,9.08214988 Z" id="Shape" fill="#D13625"></path>
                <g id="text" transform="translate(8.487991, 2.121998)" fill="#FFFFFF">
                    <path d="M0.93367896,0.254639716 L0.93367896,1.86735792 C1.06099882,1.69759811 1.18831868,1.57027825 1.35807849,1.48539835 C1.5278383,1.40051844 1.74003806,1.35807849 1.95223783,1.35807849 C2.12199764,1.35807849 2.29175745,1.40051844 2.41907731,1.44295839 C2.58883712,1.5278383 2.71615697,1.6127182 2.84347683,1.74003806 C2.97079669,1.86735792 3.0556766,2.03711773 3.1405565,2.29175745 C3.22543641,2.50395721 3.26787636,2.75859693 3.26787636,3.0556766 C3.26787636,3.35275627 3.22543641,3.60739598 3.1405565,3.81959575 C3.0556766,4.03179551 2.97079669,4.20155532 2.84347683,4.37131513 C2.71615697,4.49863499 2.58883712,4.62595485 2.41907731,4.6683948 C2.24931749,4.75327471 2.07955768,4.75327471 1.95223783,4.75327471 C1.69759811,4.75327471 1.48539835,4.71083475 1.31563853,4.62595485 C1.14587872,4.54107494 0.976118913,4.41375508 0.891239007,4.24399527 L0.891239007,4.6683948 L0.0424399527,4.6683948 L0.0424399527,0.254639716 L0.93367896,0.254639716 Z M2.37663735,2.71615697 C2.3341974,2.58883712 2.29175745,2.46151726 2.24931749,2.37663735 C2.20687754,2.29175745 2.12199764,2.20687754 1.99467778,2.16443759 C1.90979787,2.12199764 1.78247801,2.07955768 1.65515816,2.07955768 C1.5278383,2.07955768 1.40051844,2.12199764 1.31563853,2.16443759 C1.23075863,2.20687754 1.14587872,2.29175745 1.06099882,2.37663735 C1.01855887,2.46151726 0.93367896,2.58883712 0.93367896,2.71615697 C0.891239007,2.84347683 0.891239007,2.97079669 0.891239007,3.09811655 C0.891239007,3.22543641 0.891239007,3.35275627 0.93367896,3.48007612 C0.976118913,3.60739598 1.01855887,3.73471584 1.06099882,3.81959575 C1.10343877,3.90447565 1.18831868,3.98935556 1.31563853,4.03179551 C1.40051844,4.07423546 1.5278383,4.11667541 1.65515816,4.11667541 C1.78247801,4.11667541 1.90979787,4.07423546 1.99467778,4.03179551 C2.07955768,3.98935556 2.16443759,3.90447565 2.24931749,3.81959575 C2.29175745,3.73471584 2.37663735,3.60739598 2.37663735,3.48007612 C2.41907731,3.35275627 2.41907731,3.22543641 2.41907731,3.09811655 C2.41907731,2.97079669 2.37663735,2.84347683 2.37663735,2.71615697 Z" id="Shape"></path>
                    <path d="M5.05035437,5.68695367 C4.88059456,5.81427352 4.62595485,5.85671348 4.32887518,5.85671348 C4.24399527,5.85671348 4.15911537,5.85671348 4.07423546,5.85671348 C3.98935556,5.85671348 3.90447565,5.85671348 3.81959575,5.81427352 L3.81959575,5.09279433 C3.90447565,5.09279433 3.98935556,5.09279433 4.07423546,5.13523428 C4.15911537,5.17767423 4.24399527,5.13523428 4.32887518,5.13523428 C4.45619504,5.13523428 4.54107494,5.09279433 4.58351489,5.00791442 C4.62595485,4.92303452 4.6683948,4.83815461 4.6683948,4.75327471 C4.6683948,4.6683948 4.6683948,4.62595485 4.62595485,4.54107494 L3.48007612,1.48539835 L4.41375508,1.48539835 L5.13523428,3.69227589 L5.85671348,1.48539835 L6.79039244,1.48539835 L5.43231395,5.13523428 C5.389874,5.389874 5.22011419,5.60207376 5.05035437,5.68695367 Z" id="Shape"></path>
                    <path d="M9.71874918,3.64983593 C9.76118913,3.73471584 9.84606903,3.81959575 9.93094894,3.90447565 C10.0158288,3.98935556 10.1431487,4.03179551 10.2280286,4.03179551 C10.3553485,4.07423546 10.4826683,4.07423546 10.6099882,4.07423546 C10.6948681,4.07423546 10.779748,4.07423546 10.9070679,4.03179551 C10.9919478,4.03179551 11.1192676,3.98935556 11.2041475,3.9469156 C11.2890274,3.90447565 11.3739073,3.8620357 11.4163473,3.77715579 C11.4587872,3.69227589 11.5012272,3.60739598 11.5012272,3.48007612 C11.5012272,3.35275627 11.4587872,3.26787636 11.3739073,3.18299645 C11.2890274,3.09811655 11.2041475,3.0556766 11.0768277,3.01323664 C10.9495078,2.97079669 10.8221879,2.92835674 10.6524281,2.88591679 C10.4826683,2.84347683 10.3129085,2.80103688 10.1855887,2.75859693 C10.0158288,2.71615697 9.84606903,2.67371702 9.67630922,2.58883712 C9.50654941,2.54639716 9.37922955,2.46151726 9.25190969,2.3341974 C9.12458984,2.24931749 9.03970993,2.12199764 8.95483003,1.95223783 C8.86995012,1.82491797 8.82751017,1.6127182 8.82751017,1.44295839 C8.82751017,1.23075863 8.86995012,1.01855887 8.95483003,0.848799055 C9.03970993,0.679039244 9.16702979,0.551719385 9.3367896,0.424399527 C9.50654941,0.297079669 9.67630922,0.212199764 9.88850899,0.169759811 C10.1007087,0.127319858 10.2704686,0.0848799055 10.4826683,0.0848799055 C10.737308,0.0848799055 10.9495078,0.127319858 11.1617076,0.169759811 C11.3739073,0.212199764 11.5861071,0.297079669 11.7558669,0.424399527 C11.9256267,0.551719385 12.0529466,0.679039244 12.1378265,0.891239007 C12.2227064,1.06099882 12.2651463,1.31563853 12.2651463,1.57027825 L11.3314674,1.57027825 C11.3314674,1.44295839 11.2890274,1.31563853 11.2465875,1.23075863 C11.2041475,1.14587872 11.1192676,1.06099882 11.0343877,1.01855887 C10.9495078,0.976118913 10.8646279,0.93367896 10.779748,0.891239007 C10.6948681,0.891239007 10.5675482,0.848799055 10.4402284,0.848799055 C10.3553485,0.848799055 10.2704686,0.848799055 10.1855887,0.891239007 C10.1007087,0.891239007 10.0158288,0.93367896 9.97338889,0.976118913 C9.88850899,1.01855887 9.84606903,1.06099882 9.80362908,1.14587872 C9.76118913,1.18831868 9.76118913,1.27319858 9.76118913,1.40051844 C9.76118913,1.48539835 9.76118913,1.57027825 9.80362908,1.6127182 C9.84606903,1.65515816 9.88850899,1.69759811 10.0158288,1.78247801 C10.1007087,1.82491797 10.2704686,1.86735792 10.4402284,1.90979787 C10.6099882,1.95223783 10.8221879,1.99467778 11.1192676,2.07955768 C11.2041475,2.07955768 11.3314674,2.12199764 11.4587872,2.16443759 C11.5861071,2.20687754 11.7558669,2.29175745 11.8831868,2.37663735 C12.0105066,2.46151726 12.1378265,2.58883712 12.2651463,2.75859693 C12.3924662,2.92835674 12.4349061,3.1405565 12.4349061,3.39519622 C12.4349061,3.60739598 12.3924662,3.77715579 12.3075863,3.9469156 C12.2227064,4.11667541 12.0953865,4.28643523 11.9680667,4.41375508 C11.8407468,4.54107494 11.628547,4.62595485 11.3739073,4.71083475 C11.1192676,4.79571466 10.8646279,4.83815461 10.5675482,4.83815461 C10.3129085,4.83815461 10.1007087,4.79571466 9.84606903,4.75327471 C9.63386927,4.71083475 9.42166951,4.58351489 9.20946974,4.45619504 C9.03970993,4.32887518 8.86995012,4.15911537 8.78507021,3.9469156 C8.70019031,3.73471584 8.6153104,3.52251608 8.6153104,3.22543641 L9.54898936,3.22543641 C9.63386927,3.39519622 9.67630922,3.52251608 9.71874918,3.64983593 Z" id="Shape"></path>
                    <path d="M12.9866255,1.57027825 C13.0715054,1.27319858 13.2412653,1.01855887 13.4110251,0.806359102 C13.5807849,0.594159338 13.8354246,0.424399527 14.0900643,0.297079669 C14.344704,0.169759811 14.6842236,0.127319858 15.0237433,0.127319858 C15.3632629,0.127319858 15.6603426,0.169759811 15.9574222,0.297079669 C16.2545019,0.424399527 16.4667017,0.594159338 16.6364615,0.806359102 C16.8062213,1.01855887 16.9759811,1.27319858 17.060861,1.57027825 C17.1457409,1.86735792 17.2306208,2.16443759 17.2306208,2.50395721 C17.2306208,2.84347683 17.1881809,3.1405565 17.060861,3.43763617 C16.9759811,3.73471584 16.8062213,3.9469156 16.6364615,4.15911537 C16.4667017,4.37131513 16.2120619,4.54107494 15.9574222,4.6683948 C15.7027825,4.79571466 15.3632629,4.83815461 15.0237433,4.83815461 C14.6842236,4.83815461 14.387144,4.79571466 14.0900643,4.6683948 C13.8354246,4.54107494 13.5807849,4.37131513 13.4110251,4.15911537 C13.2412653,3.9469156 13.0715054,3.69227589 12.9866255,3.43763617 C12.9017456,3.1405565 12.8168657,2.84347683 12.8168657,2.50395721 C12.8593057,2.16443759 12.9017456,1.86735792 12.9866255,1.57027825 Z M13.9203045,3.0556766 C13.9627444,3.22543641 14.0476244,3.39519622 14.1325043,3.52251608 C14.2173842,3.64983593 14.344704,3.77715579 14.5144638,3.8620357 C14.6842236,3.9469156 14.8539835,3.98935556 15.0661832,3.98935556 C15.278383,3.98935556 15.4905827,3.9469156 15.6179026,3.8620357 C15.7876624,3.77715579 15.9149823,3.64983593 15.9998622,3.52251608 C16.0847421,3.39519622 16.169622,3.22543641 16.2120619,3.0556766 C16.2545019,2.88591679 16.2969418,2.67371702 16.2969418,2.50395721 C16.2969418,2.29175745 16.2545019,2.12199764 16.2120619,1.95223783 C16.169622,1.78247801 16.0847421,1.6127182 15.9998622,1.44295839 C15.9149823,1.31563853 15.7876624,1.18831868 15.6179026,1.10343877 C15.4481428,1.01855887 15.278383,0.976118913 15.0661832,0.976118913 C14.8539835,0.976118913 14.6417837,1.01855887 14.5144638,1.10343877 C14.387144,1.18831868 14.2173842,1.31563853 14.1325043,1.44295839 C14.0476244,1.57027825 13.9627444,1.74003806 13.9203045,1.95223783 C13.8778645,2.12199764 13.8354246,2.3341974 13.8354246,2.50395721 C13.8354246,2.71615697 13.8778645,2.88591679 13.9203045,3.0556766 Z" id="Shape"></path>
                    <path d="M18.6735792,3.64983593 C18.7160192,3.73471584 18.8008991,3.81959575 18.885779,3.90447565 C18.9706589,3.98935556 19.0979787,4.03179551 19.1828586,4.03179551 C19.3101785,4.07423546 19.4374984,4.07423546 19.5648182,4.07423546 C19.6496981,4.07423546 19.734578,4.07423546 19.8618979,4.03179551 C19.9467778,4.03179551 20.0740976,3.98935556 20.1589775,3.9469156 C20.2438575,3.90447565 20.3287374,3.8620357 20.3711773,3.77715579 C20.4136173,3.69227589 20.4560572,3.60739598 20.4560572,3.48007612 C20.4560572,3.35275627 20.4136173,3.26787636 20.3287374,3.18299645 C20.2438575,3.09811655 20.1589775,3.0556766 20.0316577,3.01323664 C19.9043378,2.97079669 19.777018,2.92835674 19.6072582,2.88591679 C19.4374984,2.84347683 19.2677385,2.80103688 19.1404187,2.75859693 C18.9706589,2.71615697 18.8008991,2.67371702 18.6311392,2.58883712 C18.4613794,2.54639716 18.3340596,2.46151726 18.2067397,2.3341974 C18.0794199,2.24931749 17.99454,2.12199764 17.9096601,1.95223783 C17.8247801,1.82491797 17.7823402,1.6127182 17.7823402,1.44295839 C17.7823402,1.23075863 17.8247801,1.01855887 17.9096601,0.848799055 C17.99454,0.679039244 18.1218598,0.551719385 18.2916196,0.424399527 C18.4613794,0.297079669 18.6311392,0.212199764 18.843339,0.169759811 C19.0555388,0.127319858 19.2252986,0.0848799055 19.4374984,0.0848799055 C19.6921381,0.0848799055 19.9043378,0.127319858 20.1165376,0.169759811 C20.3287374,0.212199764 20.5409371,0.297079669 20.7106969,0.424399527 C20.8804567,0.551719385 21.0077766,0.679039244 21.0926565,0.891239007 C21.1775364,1.06099882 21.2199764,1.31563853 21.2199764,1.57027825 L20.2862974,1.57027825 C20.2862974,1.44295839 20.2438575,1.31563853 20.2014175,1.23075863 C20.1589775,1.14587872 20.0740976,1.06099882 19.9892177,1.01855887 C19.9043378,0.976118913 19.8194579,0.93367896 19.734578,0.891239007 C19.6496981,0.891239007 19.5223783,0.848799055 19.3950584,0.848799055 C19.3101785,0.848799055 19.2252986,0.848799055 19.1404187,0.891239007 C19.0555388,0.891239007 18.9706589,0.93367896 18.9282189,0.976118913 C18.843339,1.01855887 18.8008991,1.06099882 18.7584591,1.14587872 C18.7160192,1.18831868 18.7160192,1.27319858 18.7160192,1.40051844 C18.7160192,1.48539835 18.7160192,1.57027825 18.7584591,1.6127182 C18.8008991,1.65515816 18.843339,1.69759811 18.9706589,1.78247801 C19.0555388,1.82491797 19.2252986,1.86735792 19.3950584,1.90979787 C19.5648182,1.95223783 19.777018,1.99467778 20.0740976,2.07955768 C20.1589775,2.07955768 20.2862974,2.12199764 20.4136173,2.16443759 C20.5833771,2.20687754 20.7106969,2.29175745 20.8380168,2.37663735 C20.9653366,2.46151726 21.0926565,2.58883712 21.2199764,2.75859693 C21.3472962,2.92835674 21.3897362,3.1405565 21.3897362,3.39519622 C21.3897362,3.60739598 21.3472962,3.77715579 21.2624163,3.9469156 C21.1775364,4.11667541 21.0502166,4.28643523 20.9228967,4.41375508 C20.7955768,4.54107494 20.5833771,4.62595485 20.3287374,4.71083475 C20.1165376,4.79571466 19.8194579,4.83815461 19.5223783,4.83815461 C19.2677385,4.83815461 19.0555388,4.79571466 18.8008991,4.75327471 C18.5886993,4.71083475 18.3764995,4.58351489 18.1642998,4.45619504 C17.99454,4.32887518 17.8247801,4.15911537 17.7399002,3.9469156 C17.6550203,3.73471584 17.5701404,3.52251608 17.5701404,3.22543641 L18.5038194,3.22543641 C18.5886993,3.39519622 18.6311392,3.52251608 18.6735792,3.64983593 Z" id="Shape"></path>
                    <path d="M22.7478147,3.64983593 C22.7902546,3.73471584 22.8751345,3.81959575 22.9600144,3.90447565 C23.0448943,3.98935556 23.1722142,4.03179551 23.2570941,4.03179551 C23.384414,4.07423546 23.5117338,4.07423546 23.6390537,4.07423546 C23.7239336,4.07423546 23.8088135,4.07423546 23.9361333,4.03179551 C24.0210132,4.03179551 24.1483331,3.98935556 24.233213,3.9469156 C24.3180929,3.90447565 24.4029728,3.8620357 24.4454128,3.77715579 C24.4878527,3.69227589 24.5302927,3.60739598 24.5302927,3.48007612 C24.5302927,3.35275627 24.4878527,3.26787636 24.4029728,3.18299645 C24.3180929,3.09811655 24.233213,3.0556766 24.1058932,3.01323664 C23.9785733,2.97079669 23.8512534,2.92835674 23.6814936,2.88591679 C23.5117338,2.84347683 23.341974,2.80103688 23.2146541,2.75859693 C23.0448943,2.71615697 22.8751345,2.67371702 22.7053747,2.58883712 C22.5356149,2.54639716 22.408295,2.46151726 22.2809752,2.3341974 C22.1536553,2.24931749 22.0687754,2.12199764 21.9838955,1.95223783 C21.8990156,1.82491797 21.8565757,1.6127182 21.8565757,1.44295839 C21.8565757,1.23075863 21.8990156,1.01855887 21.9838955,0.848799055 C22.0687754,0.679039244 22.1960953,0.551719385 22.3658551,0.424399527 C22.5356149,0.297079669 22.7053747,0.212199764 22.9175745,0.169759811 C23.1297742,0.127319858 23.299534,0.0848799055 23.5117338,0.0848799055 C23.7663735,0.0848799055 23.9785733,0.127319858 24.1907731,0.169759811 C24.4029728,0.212199764 24.6151726,0.297079669 24.7849324,0.424399527 C24.9546922,0.551719385 25.0820121,0.679039244 25.166892,0.891239007 C25.2517719,1.06099882 25.2942118,1.31563853 25.2942118,1.57027825 L24.3605329,1.57027825 C24.3605329,1.44295839 24.3180929,1.31563853 24.275653,1.23075863 C24.233213,1.14587872 24.1483331,1.06099882 24.0634532,1.01855887 C23.9785733,0.976118913 23.8936934,0.93367896 23.8088135,0.891239007 C23.7239336,0.891239007 23.5966137,0.848799055 23.4692939,0.848799055 C23.384414,0.848799055 23.299534,0.848799055 23.2146541,0.891239007 C23.1297742,0.891239007 23.0448943,0.93367896 23.0024544,0.976118913 C22.9175745,1.01855887 22.8751345,1.06099882 22.8326946,1.14587872 C22.7902546,1.18831868 22.7902546,1.27319858 22.7902546,1.40051844 C22.7902546,1.48539835 22.7902546,1.57027825 22.8326946,1.6127182 C22.8751345,1.65515816 22.9175745,1.69759811 23.0448943,1.78247801 C23.1297742,1.82491797 23.299534,1.86735792 23.4692939,1.90979787 C23.6390537,1.95223783 23.8512534,1.99467778 24.1483331,2.07955768 C24.233213,2.07955768 24.3605329,2.12199764 24.4878527,2.16443759 C24.6151726,2.20687754 24.7849324,2.29175745 24.9122523,2.37663735 C25.0395721,2.46151726 25.166892,2.58883712 25.2942118,2.75859693 C25.4215317,2.92835674 25.4639716,3.1405565 25.4639716,3.39519622 C25.4639716,3.60739598 25.4215317,3.77715579 25.3366518,3.9469156 C25.2517719,4.11667541 25.124452,4.28643523 24.9971322,4.41375508 C24.8698123,4.54107494 24.6576125,4.62595485 24.4029728,4.71083475 C24.1483331,4.79571466 23.8936934,4.83815461 23.5966137,4.83815461 C23.341974,4.83815461 23.1297742,4.79571466 22.8751345,4.75327471 C22.6629348,4.71083475 22.450735,4.58351489 22.2385352,4.45619504 C22.0687754,4.32887518 21.8990156,4.15911537 21.8141357,3.9469156 C21.7292558,3.73471584 21.6443759,3.52251608 21.6443759,3.22543641 L22.5780549,3.22543641 C22.6629348,3.39519622 22.7053747,3.52251608 22.7478147,3.64983593 Z" id="Shape"></path>
                </g>
            </g>
        </g>
    </g>
</svg>