<?xml version="1.0" encoding="utf-8"?>
<svg version="1.1" id="Layer_1" xmlns="http://www.w3.org/2000/svg" xmlns:xlink="http://www.w3.org/1999/xlink" x="0px" y="0px"
	 viewBox="0 0 350 87" style="enable-background:new 0 0 350 87;" xml:space="preserve">
<style type="text/css">
	.st0{fill:#F2F2F2;}
	.st1{enable-background:new    ;}
	.st2{fill:#D13625;}
	.st3{display:none;}
	.st4{display:inline;enable-background:new    ;}
	.st5{fill:#FFFFFF;}
</style>

<rect id="Underline" x="5.3" y="55" class="st0" width="250" height="2"/>
<g id="UltraLatch">
	<g>
		<g class="st1">
			<path class="st0" d="M12.2,29.6c-0.2,1.2-0.3,2.3-0.3,3.4c0,3.1,0.8,5.4,2.4,6.9s3.9,2.2,6.8,2.2c2.9,0,5.2-0.6,6.9-1.9
				s2.9-2.7,3.6-4.5c0.7-1.7,1.3-3.7,1.6-5.8l3.2-20.2L31,8.5l0.6-2.4h15l-0.7,2.4l-5.4,1.2l-3.2,19.7c-1.8,10.9-8.1,16.4-18.8,16.4
				c-3.4,0-6.3-0.8-8.9-2.5c-2.5-1.7-3.8-4.7-3.8-9.1c0-1.2,0.1-2.5,0.3-3.8L9.4,9.8L3.8,8.5l0.7-2.4h16.9l-0.6,2.4l-5.5,1.2
				L12.2,29.6z"/>
			<path class="st0" d="M50.3,7.4l0.3-2.5c1.4-0.7,3-1,4.8-1c1.5,0,2.6,0.3,3.2,0.9c0.6,0.6,0.9,1.5,0.9,2.8c0,0.7-0.1,1.5-0.2,2.3
				l-3.7,23.3c-0.5,3-0.7,5.2-0.7,6.4c0,0.8,0.2,1.3,0.5,1.7c0.3,0.4,0.8,0.6,1.3,0.6C57.3,42,58,42,58.9,42l-0.2,2.5
				c-0.5,0.3-1.2,0.5-2,0.7c-0.8,0.2-1.6,0.3-2.4,0.3c-1.6,0-2.8-0.3-3.5-1c-0.7-0.7-1-1.7-1-3.2c0-0.6,0.1-1.4,0.2-2.4L54.4,10
				c0-0.3,0.1-0.6,0.1-0.7c0-0.8-0.2-1.3-0.7-1.5c-0.5-0.3-1.2-0.4-2.1-0.4L50.3,7.4z"/>
			<path class="st0" d="M68.6,34.2c-0.2,1.4-0.3,2.6-0.3,3.4c0,1.4,0.3,2.3,0.9,2.8c0.6,0.5,1.5,0.8,2.9,0.8c1.1,0,2.2-0.3,3.3-1
				l0.4,1.7c-0.9,1.2-1.9,2.1-3.1,2.8c-1.2,0.7-2.5,1-3.9,1c-1.9,0-3.2-0.5-4.1-1.5c-0.9-1-1.3-2.6-1.3-4.6c0-0.9,0.1-2.1,0.3-3.5
				l2.3-14.9h-3.1l0.3-3h3.3l1.1-6.8h4.8l-1.1,6.8H78l-0.6,3h-6.8L68.6,34.2z"/>
			<path class="st0" d="M87.1,45h-5.2l2.9-21.8c0-0.1,0-0.4,0-0.6c0-0.8-0.2-1.4-0.7-1.6c-0.5-0.3-1.2-0.4-2.1-0.4l-1.3,0l0.3-2.5
				c1.4-0.7,3-1,4.8-1c1.5,0,2.6,0.3,3.3,0.9c0.7,0.6,1.1,1.5,1.1,2.7c0,0.4-0.1,1-0.2,1.8L89.1,26h0.3c0.5-1.5,1.1-2.9,1.8-4.2
				c0.8-1.4,1.6-2.5,2.5-3.4s1.9-1.3,2.9-1.3c0.9,0,1.7,0.3,2.2,0.8s0.8,1.3,0.8,2.1c0,0.7-0.1,1.4-0.4,2.2c-0.3,0.7-0.7,1.4-1.3,2
				c-0.4-0.4-0.8-0.7-1.2-0.8c-0.4-0.1-0.9-0.2-1.5-0.2c-1.2,0-2.4,0.6-3.5,1.9c-1.1,1.2-2,2.6-2.7,4.1L87.1,45z"/>
			<path class="st0" d="M119.5,33.2c-0.5,3-0.7,5.1-0.7,6.2c0,0.9,0.1,1.6,0.4,1.9c0.2,0.4,0.6,0.6,1.2,0.7l2.4,0.4l-0.6,2.2
				c-1.8,0.7-3.4,1-4.7,1c-1.2,0-2.2-0.3-3-0.9s-1.1-1.5-1.1-2.5c0-0.4,0.1-0.8,0.2-1.2h-0.4c-0.8,1.4-1.8,2.5-3.1,3.4
				c-1.3,0.9-2.8,1.4-4.2,1.4c-1.3,0-2.4-0.4-3.3-1.1c-0.9-0.7-1.7-1.8-2.2-3.2c-0.5-1.4-0.8-3-0.8-4.9c0-3.9,0.8-7.3,2.5-10.2
				c1.6-2.9,3.7-5.1,6.2-6.6s4.9-2.3,7.3-2.3c3.3,0,5.4,0.6,6.3,1.7L119.5,33.2z M113.7,38.7l2.7-17c-0.8-0.7-2-1.1-3.7-1.1
				c-1.6,0-3,0.7-4.2,2.2c-1.2,1.4-2.2,3.3-2.9,5.5c-0.7,2.2-1,4.5-1,6.8c0,2.3,0.3,4,1,5.1c0.6,1.1,1.6,1.6,2.8,1.6
				c1.1,0,2-0.3,2.9-0.8C112,40.4,112.9,39.7,113.7,38.7z"/>
			<path class="st0" d="M148.6,6.1L148,8.5l-5.6,1.5l-5.1,32h14.2l4.3-7.8l2.6,0.4L156.6,45h-31.2l0.6-2.3l5.5-1.5l4.9-31.2
				l-5.7-1.6l0.8-2.4H148.6z"/>
			<path class="st0" d="M180.6,33.2c-0.5,3-0.7,5.1-0.7,6.2c0,0.9,0.1,1.6,0.4,1.9s0.6,0.6,1.2,0.7l2.4,0.4l-0.6,2.2
				c-1.8,0.7-3.4,1-4.7,1c-1.2,0-2.2-0.3-3-0.9s-1.1-1.5-1.1-2.5c0-0.4,0.1-0.8,0.2-1.2h-0.4c-0.8,1.4-1.8,2.5-3.1,3.4
				s-2.8,1.4-4.2,1.4c-1.3,0-2.4-0.4-3.3-1.1s-1.7-1.8-2.2-3.2c-0.5-1.4-0.8-3-0.8-4.9c0-3.9,0.8-7.3,2.5-10.2
				c1.6-2.9,3.7-5.1,6.2-6.6s4.9-2.3,7.3-2.3c3.3,0,5.4,0.6,6.3,1.7L180.6,33.2z M174.9,38.7l2.7-17c-0.8-0.7-2-1.1-3.7-1.1
				c-1.6,0-3,0.7-4.2,2.2s-2.2,3.3-2.9,5.5c-0.7,2.2-1,4.5-1,6.8c0,2.3,0.3,4,1,5.1c0.6,1.1,1.6,1.6,2.8,1.6c1.1,0,2-0.3,2.9-0.8
				C173.2,40.4,174,39.7,174.9,38.7z"/>
			<path class="st0" d="M193,34.2c-0.2,1.4-0.3,2.6-0.3,3.4c0,1.4,0.3,2.3,0.9,2.8s1.5,0.8,2.9,0.8c1.1,0,2.2-0.3,3.3-1l0.4,1.7
				c-0.9,1.2-1.9,2.1-3.1,2.8s-2.5,1-3.9,1c-1.9,0-3.2-0.5-4.1-1.5s-1.3-2.6-1.3-4.6c0-0.9,0.1-2.1,0.3-3.5l2.3-14.9h-3.1l0.3-3h3.3
				l1.1-6.8h4.8l-1.1,6.8h6.9l-0.6,3h-6.8L193,34.2z"/>
			<path class="st0" d="M215.5,41.7c2,0,4.2-0.8,6.7-2.3l0.8,1.9c-1.1,1.3-2.6,2.3-4.4,3.2s-3.5,1.3-5.2,1.3c-1.9,0-3.6-0.4-5-1.2
				s-2.5-1.9-3.3-3.5c-0.8-1.6-1.2-3.5-1.2-5.7c0-3.4,0.7-6.4,2.2-9.2c1.5-2.8,3.4-4.9,5.8-6.5c2.4-1.6,4.8-2.4,7.3-2.4
				c1.8,0,3.2,0.4,4.3,1.3c1,0.9,1.5,2.1,1.5,3.6c0,0.9-0.4,1.7-1.2,2.2s-1.7,0.9-2.9,1c-0.4-1.2-0.7-2.1-1-2.8s-0.7-1.2-1.2-1.7
				c-0.5-0.5-1.2-0.7-2.1-0.7c-1.6,0-3,0.7-4.1,2s-1.9,3-2.4,5c-0.5,2-0.8,3.9-0.8,5.8c0,2.9,0.5,5,1.5,6.4
				C211.8,41,213.3,41.7,215.5,41.7z"/>
			<path class="st0" d="M232.1,45H227l5.3-35c0-0.3,0.1-0.6,0.1-0.7c0-0.8-0.2-1.3-0.7-1.6c-0.5-0.3-1.2-0.4-2.1-0.4l-1.3,0l0.3-2.5
				c1.4-0.7,3-1,4.8-1c1.5,0,2.6,0.3,3.2,0.9c0.6,0.6,0.9,1.5,0.9,2.8c0,0.5-0.1,1.3-0.2,2.3l-1.3,8.7l-0.9,3.9h0.4
				c1.1-1.4,2.4-2.7,4-3.7c1.6-1.1,3.3-1.6,5-1.6c1.8,0,3.1,0.5,4,1.4s1.4,2.4,1.4,4.3c0,0.9-0.1,1.9-0.3,3l-1.1,7.3
				c-0.5,3-0.7,5.2-0.7,6.4c0,0.8,0.2,1.3,0.5,1.7c0.3,0.4,0.8,0.6,1.3,0.6c0.5,0.1,1.2,0.1,2.1,0.1l-0.2,2.5
				c-0.5,0.3-1.2,0.5-2,0.7c-0.8,0.2-1.6,0.3-2.4,0.3c-1.6,0-2.8-0.3-3.5-1s-1.1-1.7-1.1-3.1c0-0.7,0.1-1.5,0.2-2.5l1.6-10.3
				c0.2-1.1,0.3-2.1,0.3-2.9c0-2.6-1.2-4-3.6-4c-1.3,0-2.5,0.2-3.4,0.7c-0.9,0.5-1.8,1.1-2.6,1.9L232.1,45z"/>
		</g>
	</g>
	<g>
		<g class="st1">
			<path class="st0" d="M12.2,29.6c-0.2,1.2-0.3,2.3-0.3,3.4c0,3.1,0.8,5.4,2.4,6.9s3.9,2.2,6.8,2.2c2.9,0,5.2-0.6,6.9-1.9
				s2.9-2.7,3.6-4.5c0.7-1.7,1.3-3.7,1.6-5.8l3.2-20.2L31,8.5l0.6-2.4h15l-0.7,2.4l-5.4,1.2l-3.2,19.7c-1.8,10.9-8.1,16.4-18.8,16.4
				c-3.4,0-6.3-0.8-8.9-2.5c-2.5-1.7-3.8-4.7-3.8-9.1c0-1.2,0.1-2.5,0.3-3.8L9.4,9.8L3.8,8.5l0.7-2.4h16.9l-0.6,2.4l-5.5,1.2
				L12.2,29.6z"/>
			<path class="st0" d="M50.3,7.4l0.3-2.5c1.4-0.7,3-1,4.8-1c1.5,0,2.6,0.3,3.2,0.9c0.6,0.6,0.9,1.5,0.9,2.8c0,0.7-0.1,1.5-0.2,2.3
				l-3.7,23.3c-0.5,3-0.7,5.2-0.7,6.4c0,0.8,0.2,1.3,0.5,1.7c0.3,0.4,0.8,0.6,1.3,0.6C57.3,42,58,42,58.9,42l-0.2,2.5
				c-0.5,0.3-1.2,0.5-2,0.7c-0.8,0.2-1.6,0.3-2.4,0.3c-1.6,0-2.8-0.3-3.5-1c-0.7-0.7-1-1.7-1-3.2c0-0.6,0.1-1.4,0.2-2.4L54.4,10
				c0-0.3,0.1-0.6,0.1-0.7c0-0.8-0.2-1.3-0.7-1.5c-0.5-0.3-1.2-0.4-2.1-0.4L50.3,7.4z"/>
			<path class="st0" d="M68.6,34.2c-0.2,1.4-0.3,2.6-0.3,3.4c0,1.4,0.3,2.3,0.9,2.8c0.6,0.5,1.5,0.8,2.9,0.8c1.1,0,2.2-0.3,3.3-1
				l0.4,1.7c-0.9,1.2-1.9,2.1-3.1,2.8c-1.2,0.7-2.5,1-3.9,1c-1.9,0-3.2-0.5-4.1-1.5c-0.9-1-1.3-2.6-1.3-4.6c0-0.9,0.1-2.1,0.3-3.5
				l2.3-14.9h-3.1l0.3-3h3.3l1.1-6.8h4.8l-1.1,6.8H78l-0.6,3h-6.8L68.6,34.2z"/>
			<path class="st0" d="M87.1,45h-5.2l2.9-21.8c0-0.1,0-0.4,0-0.6c0-0.8-0.2-1.4-0.7-1.6c-0.5-0.3-1.2-0.4-2.1-0.4l-1.3,0l0.3-2.5
				c1.4-0.7,3-1,4.8-1c1.5,0,2.6,0.3,3.3,0.9c0.7,0.6,1.1,1.5,1.1,2.7c0,0.4-0.1,1-0.2,1.8L89.1,26h0.3c0.5-1.5,1.1-2.9,1.8-4.2
				c0.8-1.4,1.6-2.5,2.5-3.4s1.9-1.3,2.9-1.3c0.9,0,1.7,0.3,2.2,0.8s0.8,1.3,0.8,2.1c0,0.7-0.1,1.4-0.4,2.2c-0.3,0.7-0.7,1.4-1.3,2
				c-0.4-0.4-0.8-0.7-1.2-0.8c-0.4-0.1-0.9-0.2-1.5-0.2c-1.2,0-2.4,0.6-3.5,1.9c-1.1,1.2-2,2.6-2.7,4.1L87.1,45z"/>
			<path class="st0" d="M119.5,33.2c-0.5,3-0.7,5.1-0.7,6.2c0,0.9,0.1,1.6,0.4,1.9c0.2,0.4,0.6,0.6,1.2,0.7l2.4,0.4l-0.6,2.2
				c-1.8,0.7-3.4,1-4.7,1c-1.2,0-2.2-0.3-3-0.9s-1.1-1.5-1.1-2.5c0-0.4,0.1-0.8,0.2-1.2h-0.4c-0.8,1.4-1.8,2.5-3.1,3.4
				c-1.3,0.9-2.8,1.4-4.2,1.4c-1.3,0-2.4-0.4-3.3-1.1c-0.9-0.7-1.7-1.8-2.2-3.2c-0.5-1.4-0.8-3-0.8-4.9c0-3.9,0.8-7.3,2.5-10.2
				c1.6-2.9,3.7-5.1,6.2-6.6s4.9-2.3,7.3-2.3c3.3,0,5.4,0.6,6.3,1.7L119.5,33.2z M113.7,38.7l2.7-17c-0.8-0.7-2-1.1-3.7-1.1
				c-1.6,0-3,0.7-4.2,2.2c-1.2,1.4-2.2,3.3-2.9,5.5c-0.7,2.2-1,4.5-1,6.8c0,2.3,0.3,4,1,5.1c0.6,1.1,1.6,1.6,2.8,1.6
				c1.1,0,2-0.3,2.9-0.8C112,40.4,112.9,39.7,113.7,38.7z"/>
			<path class="st0" d="M148.6,6.1L148,8.5l-5.6,1.5l-5.1,32h14.2l4.3-7.8l2.6,0.4L156.6,45h-31.2l0.6-2.3l5.5-1.5l4.9-31.2
				l-5.7-1.6l0.8-2.4H148.6z"/>
			<path class="st0" d="M180.6,33.2c-0.5,3-0.7,5.1-0.7,6.2c0,0.9,0.1,1.6,0.4,1.9s0.6,0.6,1.2,0.7l2.4,0.4l-0.6,2.2
				c-1.8,0.7-3.4,1-4.7,1c-1.2,0-2.2-0.3-3-0.9s-1.1-1.5-1.1-2.5c0-0.4,0.1-0.8,0.2-1.2h-0.4c-0.8,1.4-1.8,2.5-3.1,3.4
				s-2.8,1.4-4.2,1.4c-1.3,0-2.4-0.4-3.3-1.1s-1.7-1.8-2.2-3.2c-0.5-1.4-0.8-3-0.8-4.9c0-3.9,0.8-7.3,2.5-10.2
				c1.6-2.9,3.7-5.1,6.2-6.6s4.9-2.3,7.3-2.3c3.3,0,5.4,0.6,6.3,1.7L180.6,33.2z M174.9,38.7l2.7-17c-0.8-0.7-2-1.1-3.7-1.1
				c-1.6,0-3,0.7-4.2,2.2s-2.2,3.3-2.9,5.5c-0.7,2.2-1,4.5-1,6.8c0,2.3,0.3,4,1,5.1c0.6,1.1,1.6,1.6,2.8,1.6c1.1,0,2-0.3,2.9-0.8
				C173.2,40.4,174,39.7,174.9,38.7z"/>
			<path class="st0" d="M193,34.2c-0.2,1.4-0.3,2.6-0.3,3.4c0,1.4,0.3,2.3,0.9,2.8s1.5,0.8,2.9,0.8c1.1,0,2.2-0.3,3.3-1l0.4,1.7
				c-0.9,1.2-1.9,2.1-3.1,2.8s-2.5,1-3.9,1c-1.9,0-3.2-0.5-4.1-1.5s-1.3-2.6-1.3-4.6c0-0.9,0.1-2.1,0.3-3.5l2.3-14.9h-3.1l0.3-3h3.3
				l1.1-6.8h4.8l-1.1,6.8h6.9l-0.6,3h-6.8L193,34.2z"/>
			<path class="st0" d="M215.5,41.7c2,0,4.2-0.8,6.7-2.3l0.8,1.9c-1.1,1.3-2.6,2.3-4.4,3.2s-3.5,1.3-5.2,1.3c-1.9,0-3.6-0.4-5-1.2
				s-2.5-1.9-3.3-3.5c-0.8-1.6-1.2-3.5-1.2-5.7c0-3.4,0.7-6.4,2.2-9.2c1.5-2.8,3.4-4.9,5.8-6.5c2.4-1.6,4.8-2.4,7.3-2.4
				c1.8,0,3.2,0.4,4.3,1.3c1,0.9,1.5,2.1,1.5,3.6c0,0.9-0.4,1.7-1.2,2.2s-1.7,0.9-2.9,1c-0.4-1.2-0.7-2.1-1-2.8s-0.7-1.2-1.2-1.7
				c-0.5-0.5-1.2-0.7-2.1-0.7c-1.6,0-3,0.7-4.1,2s-1.9,3-2.4,5c-0.5,2-0.8,3.9-0.8,5.8c0,2.9,0.5,5,1.5,6.4
				C211.8,41,213.3,41.7,215.5,41.7z"/>
			<path class="st0" d="M232.1,45H227l5.3-35c0-0.3,0.1-0.6,0.1-0.7c0-0.8-0.2-1.3-0.7-1.6c-0.5-0.3-1.2-0.4-2.1-0.4l-1.3,0l0.3-2.5
				c1.4-0.7,3-1,4.8-1c1.5,0,2.6,0.3,3.2,0.9c0.6,0.6,0.9,1.5,0.9,2.8c0,0.5-0.1,1.3-0.2,2.3l-1.3,8.7l-0.9,3.9h0.4
				c1.1-1.4,2.4-2.7,4-3.7c1.6-1.1,3.3-1.6,5-1.6c1.8,0,3.1,0.5,4,1.4s1.4,2.4,1.4,4.3c0,0.9-0.1,1.9-0.3,3l-1.1,7.3
				c-0.5,3-0.7,5.2-0.7,6.4c0,0.8,0.2,1.3,0.5,1.7c0.3,0.4,0.8,0.6,1.3,0.6c0.5,0.1,1.2,0.1,2.1,0.1l-0.2,2.5
				c-0.5,0.3-1.2,0.5-2,0.7c-0.8,0.2-1.6,0.3-2.4,0.3c-1.6,0-2.8-0.3-3.5-1s-1.1-1.7-1.1-3.1c0-0.7,0.1-1.5,0.2-2.5l1.6-10.3
				c0.2-1.1,0.3-2.1,0.3-2.9c0-2.6-1.2-4-3.6-4c-1.3,0-2.5,0.2-3.4,0.7c-0.9,0.5-1.8,1.1-2.6,1.9L232.1,45z"/>
		</g>
	</g>
</g>
<g id="Layer_2">
	<path class="st2" d="M243.1,83.4h-73c-5.9,0-10.7-4.8-10.7-10.7l0,0c0-5.9,4.8-10.7,10.7-10.7h73c5.9,0,10.7,4.8,10.7,10.7l0,0
		C253.8,78.6,249,83.4,243.1,83.4z"/>
	<g class="st3">
		<g class="st4">
			<path class="st5" d="M174.2,65.6v4.5h0c0.3-0.5,0.7-0.8,1.2-1s1-0.3,1.6-0.3c0.5,0,0.9,0.1,1.3,0.3c0.4,0.2,0.8,0.5,1.2,0.8
				c0.4,0.4,0.6,0.9,0.9,1.5s0.3,1.3,0.3,2.1c0,0.8-0.1,1.5-0.3,2.1s-0.5,1.1-0.9,1.5s-0.7,0.7-1.2,0.8c-0.4,0.2-0.9,0.3-1.3,0.3
				c-0.7,0-1.2-0.1-1.8-0.3c-0.5-0.2-0.9-0.6-1.2-1.1h0V78h-2.3V65.6H174.2z M178.1,72.4c-0.1-0.3-0.2-0.7-0.4-0.9
				c-0.2-0.3-0.4-0.5-0.6-0.6c-0.3-0.2-0.6-0.2-0.9-0.2c-0.4,0-0.7,0.1-0.9,0.2c-0.3,0.2-0.5,0.4-0.7,0.6c-0.2,0.3-0.3,0.6-0.4,0.9
				c-0.1,0.3-0.1,0.7-0.1,1.1c0,0.4,0,0.7,0.1,1.1c0.1,0.3,0.2,0.7,0.4,0.9c0.2,0.3,0.4,0.5,0.7,0.6s0.6,0.2,0.9,0.2
				c0.4,0,0.7-0.1,0.9-0.2c0.3-0.2,0.5-0.4,0.6-0.6c0.2-0.3,0.3-0.6,0.4-0.9s0.1-0.7,0.1-1.1C178.3,73.1,178.2,72.8,178.1,72.4z"/>
			<path class="st5" d="M185.6,80.6c-0.5,0.3-1.1,0.5-2,0.5c-0.3,0-0.5,0-0.8,0s-0.5,0-0.8-0.1v-2c0.2,0,0.5,0,0.7,0.1
				c0.2,0,0.5,0,0.7,0c0.3,0,0.6-0.2,0.7-0.4c0.2-0.2,0.2-0.5,0.2-0.7c0-0.2,0-0.4-0.1-0.6l-3.1-8.4h2.6l2,6.1h0l2-6.1h2.5l-3.7,10
				C186.4,79.8,186,80.3,185.6,80.6z"/>
			<path class="st5" d="M198.4,74.9c0.1,0.3,0.3,0.5,0.6,0.7c0.2,0.2,0.5,0.3,0.9,0.4c0.3,0.1,0.7,0.1,1,0.1c0.2,0,0.5,0,0.8-0.1
				c0.3,0,0.5-0.1,0.8-0.2c0.2-0.1,0.4-0.3,0.6-0.5c0.2-0.2,0.2-0.5,0.2-0.8c0-0.3-0.1-0.6-0.3-0.8c-0.2-0.2-0.5-0.4-0.8-0.5
				c-0.3-0.1-0.7-0.3-1.2-0.4c-0.4-0.1-0.9-0.2-1.3-0.3c-0.5-0.1-0.9-0.3-1.3-0.4c-0.4-0.2-0.8-0.4-1.2-0.6c-0.3-0.3-0.6-0.6-0.8-1
				c-0.2-0.4-0.3-0.9-0.3-1.4c0-0.6,0.1-1.2,0.4-1.7c0.3-0.5,0.6-0.9,1.1-1.2c0.4-0.3,0.9-0.5,1.5-0.7c0.6-0.2,1.1-0.2,1.7-0.2
				c0.6,0,1.3,0.1,1.9,0.2s1.1,0.4,1.6,0.7c0.5,0.3,0.8,0.7,1.1,1.2c0.3,0.5,0.4,1.1,0.4,1.8h-2.6c0-0.4-0.1-0.7-0.2-0.9
				c-0.1-0.2-0.3-0.4-0.5-0.6c-0.2-0.1-0.5-0.2-0.8-0.3c-0.3-0.1-0.6-0.1-0.9-0.1c-0.2,0-0.4,0-0.7,0.1s-0.4,0.1-0.6,0.2
				s-0.3,0.3-0.4,0.4c-0.1,0.2-0.2,0.4-0.2,0.7c0,0.2,0,0.4,0.1,0.6c0.1,0.1,0.3,0.3,0.5,0.4c0.3,0.1,0.6,0.3,1.1,0.4
				s1.1,0.3,1.9,0.5c0.2,0,0.6,0.1,1,0.3c0.4,0.1,0.8,0.3,1.2,0.6c0.4,0.3,0.8,0.6,1,1.1c0.3,0.4,0.4,1,0.4,1.7
				c0,0.6-0.1,1.1-0.3,1.6s-0.5,0.9-1,1.3c-0.4,0.4-1,0.6-1.6,0.8c-0.6,0.2-1.4,0.3-2.2,0.3c-0.7,0-1.3-0.1-2-0.2
				c-0.6-0.2-1.2-0.4-1.7-0.8s-0.9-0.8-1.2-1.4c-0.3-0.6-0.4-1.2-0.4-2h2.6C198.2,74.3,198.2,74.6,198.4,74.9z"/>
			<path class="st5" d="M207.4,69.3c0.3-0.8,0.7-1.5,1.2-2.1c0.5-0.6,1.2-1,1.9-1.4c0.8-0.3,1.6-0.5,2.6-0.5c1,0,1.8,0.2,2.6,0.5
				c0.8,0.3,1.4,0.8,1.9,1.4s0.9,1.3,1.2,2.1s0.4,1.6,0.4,2.6c0,0.9-0.1,1.7-0.4,2.5s-0.7,1.5-1.2,2c-0.5,0.6-1.2,1-1.9,1.4
				c-0.8,0.3-1.6,0.5-2.6,0.5c-0.9,0-1.8-0.2-2.6-0.5c-0.8-0.3-1.4-0.8-1.9-1.4c-0.5-0.6-0.9-1.3-1.2-2s-0.4-1.6-0.4-2.5
				C207,70.9,207.1,70.1,207.4,69.3z M209.9,73.4c0.1,0.5,0.3,0.9,0.6,1.3c0.3,0.4,0.6,0.7,1,0.9c0.4,0.2,0.9,0.4,1.6,0.4
				c0.6,0,1.1-0.1,1.6-0.4c0.4-0.2,0.8-0.5,1-0.9c0.3-0.4,0.5-0.8,0.6-1.3c0.1-0.5,0.2-1,0.2-1.5c0-0.5-0.1-1.1-0.2-1.6
				c-0.1-0.5-0.3-1-0.6-1.4c-0.3-0.4-0.6-0.7-1-1s-0.9-0.4-1.6-0.4c-0.6,0-1.1,0.1-1.6,0.4s-0.8,0.6-1,1c-0.3,0.4-0.5,0.9-0.6,1.4
				c-0.1,0.5-0.2,1-0.2,1.6C209.7,72.4,209.8,72.9,209.9,73.4z"/>
			<path class="st5" d="M223.1,74.9c0.1,0.3,0.3,0.5,0.6,0.7c0.2,0.2,0.5,0.3,0.9,0.4c0.3,0.1,0.7,0.1,1,0.1c0.2,0,0.5,0,0.8-0.1
				c0.3,0,0.5-0.1,0.8-0.2c0.2-0.1,0.4-0.3,0.6-0.5c0.2-0.2,0.2-0.5,0.2-0.8c0-0.3-0.1-0.6-0.3-0.8c-0.2-0.2-0.5-0.4-0.8-0.5
				c-0.3-0.1-0.7-0.3-1.2-0.4c-0.4-0.1-0.9-0.2-1.3-0.3c-0.5-0.1-0.9-0.3-1.3-0.4s-0.8-0.4-1.2-0.6c-0.3-0.3-0.6-0.6-0.8-1
				c-0.2-0.4-0.3-0.9-0.3-1.4c0-0.6,0.1-1.2,0.4-1.7c0.3-0.5,0.6-0.9,1.1-1.2c0.4-0.3,0.9-0.5,1.5-0.7c0.6-0.2,1.1-0.2,1.7-0.2
				c0.6,0,1.3,0.1,1.9,0.2s1.1,0.4,1.6,0.7c0.5,0.3,0.8,0.7,1.1,1.2c0.3,0.5,0.4,1.1,0.4,1.8h-2.6c0-0.4-0.1-0.7-0.2-0.9
				s-0.3-0.4-0.5-0.6c-0.2-0.1-0.5-0.2-0.8-0.3c-0.3-0.1-0.6-0.1-0.9-0.1c-0.2,0-0.4,0-0.7,0.1c-0.2,0-0.4,0.1-0.6,0.2
				c-0.2,0.1-0.3,0.3-0.4,0.4c-0.1,0.2-0.2,0.4-0.2,0.7c0,0.2,0,0.4,0.1,0.6c0.1,0.1,0.3,0.3,0.5,0.4c0.3,0.1,0.6,0.3,1.1,0.4
				s1.1,0.3,1.9,0.5c0.2,0,0.6,0.1,1,0.3s0.8,0.3,1.2,0.6c0.4,0.3,0.8,0.6,1,1.1c0.3,0.4,0.4,1,0.4,1.7c0,0.6-0.1,1.1-0.3,1.6
				s-0.5,0.9-1,1.3c-0.4,0.4-1,0.6-1.6,0.8c-0.6,0.2-1.4,0.3-2.2,0.3c-0.7,0-1.3-0.1-2-0.2s-1.2-0.4-1.7-0.8
				c-0.5-0.4-0.9-0.8-1.2-1.4c-0.3-0.6-0.4-1.2-0.4-2h2.6C222.8,74.3,222.9,74.6,223.1,74.9z"/>
			<path class="st5" d="M234.3,74.9c0.2,0.3,0.3,0.5,0.6,0.7c0.2,0.2,0.5,0.3,0.9,0.4c0.3,0.1,0.7,0.1,1,0.1c0.2,0,0.5,0,0.8-0.1
				c0.3,0,0.5-0.1,0.8-0.2c0.2-0.1,0.4-0.3,0.6-0.5c0.2-0.2,0.2-0.5,0.2-0.8c0-0.3-0.1-0.6-0.3-0.8c-0.2-0.2-0.5-0.4-0.8-0.5
				c-0.3-0.1-0.7-0.3-1.2-0.4s-0.9-0.2-1.3-0.3c-0.5-0.1-0.9-0.3-1.3-0.4c-0.4-0.2-0.8-0.4-1.2-0.6c-0.3-0.3-0.6-0.6-0.8-1
				c-0.2-0.4-0.3-0.9-0.3-1.4c0-0.6,0.1-1.2,0.4-1.7c0.3-0.5,0.6-0.9,1.1-1.2c0.4-0.3,0.9-0.5,1.5-0.7c0.6-0.2,1.1-0.2,1.7-0.2
				c0.6,0,1.3,0.1,1.9,0.2s1.1,0.4,1.6,0.7c0.5,0.3,0.8,0.7,1.1,1.2c0.3,0.5,0.4,1.1,0.4,1.8h-2.6c0-0.4-0.1-0.7-0.2-0.9
				c-0.1-0.2-0.3-0.4-0.5-0.6c-0.2-0.1-0.5-0.2-0.8-0.3c-0.3-0.1-0.6-0.1-0.9-0.1c-0.2,0-0.4,0-0.7,0.1s-0.4,0.1-0.6,0.2
				c-0.2,0.1-0.3,0.3-0.4,0.4c-0.1,0.2-0.2,0.4-0.2,0.7c0,0.2,0,0.4,0.1,0.6c0.1,0.1,0.3,0.3,0.5,0.4c0.3,0.1,0.6,0.3,1.1,0.4
				s1.1,0.3,1.9,0.5c0.2,0,0.5,0.1,1,0.3c0.4,0.1,0.8,0.3,1.2,0.6c0.4,0.3,0.8,0.6,1,1.1c0.3,0.4,0.4,1,0.4,1.7
				c0,0.6-0.1,1.1-0.3,1.6c-0.2,0.5-0.5,0.9-1,1.3c-0.4,0.4-1,0.6-1.6,0.8c-0.6,0.2-1.4,0.3-2.2,0.3c-0.7,0-1.3-0.1-2-0.2
				c-0.6-0.2-1.2-0.4-1.7-0.8s-0.9-0.8-1.2-1.4c-0.3-0.6-0.4-1.2-0.4-2h2.6C234.1,74.3,234.1,74.6,234.3,74.9z"/>
		</g>
	</g>
	<g>
		<g class="st1">
			<path class="st5" d="M181.2,67.6v3.8h0c0.3-0.4,0.6-0.7,1-0.9s0.9-0.3,1.4-0.3c0.4,0,0.8,0.1,1.1,0.2c0.4,0.2,0.7,0.4,1,0.7
				c0.3,0.3,0.5,0.7,0.7,1.3c0.2,0.5,0.3,1.1,0.3,1.8c0,0.7-0.1,1.3-0.3,1.8s-0.4,0.9-0.7,1.3c-0.3,0.3-0.6,0.6-1,0.7
				c-0.4,0.2-0.8,0.2-1.1,0.2c-0.6,0-1.1-0.1-1.5-0.3c-0.4-0.2-0.8-0.5-1-0.9h0v1h-2V67.6H181.2z M184.6,73.4
				c-0.1-0.3-0.2-0.6-0.3-0.8c-0.1-0.2-0.3-0.4-0.6-0.5c-0.2-0.1-0.5-0.2-0.8-0.2c-0.3,0-0.6,0.1-0.8,0.2c-0.2,0.1-0.4,0.3-0.6,0.5
				c-0.1,0.2-0.3,0.5-0.3,0.8c-0.1,0.3-0.1,0.6-0.1,0.9c0,0.3,0,0.6,0.1,0.9c0.1,0.3,0.2,0.6,0.3,0.8c0.1,0.2,0.3,0.4,0.6,0.5
				c0.2,0.1,0.5,0.2,0.8,0.2c0.3,0,0.6-0.1,0.8-0.2c0.2-0.1,0.4-0.3,0.6-0.5c0.1-0.2,0.3-0.5,0.3-0.8c0.1-0.3,0.1-0.6,0.1-0.9
				C184.7,74,184.6,73.7,184.6,73.4z"/>
			<path class="st5" d="M190.9,80.4c-0.4,0.3-1,0.4-1.7,0.4c-0.2,0-0.4,0-0.6,0s-0.4,0-0.6-0.1V79c0.2,0,0.4,0,0.6,0.1s0.4,0,0.6,0
				c0.3,0,0.5-0.1,0.6-0.3c0.1-0.2,0.2-0.4,0.2-0.6c0-0.2,0-0.3-0.1-0.5l-2.7-7.2h2.2l1.7,5.2h0l1.7-5.2h2.2l-3.2,8.6
				C191.7,79.7,191.3,80.2,190.9,80.4z"/>
			<path class="st5" d="M201.9,75.6c0.1,0.2,0.3,0.4,0.5,0.6s0.5,0.3,0.7,0.3c0.3,0.1,0.6,0.1,0.9,0.1c0.2,0,0.4,0,0.7-0.1
				c0.2,0,0.5-0.1,0.7-0.2c0.2-0.1,0.4-0.2,0.5-0.4c0.1-0.2,0.2-0.4,0.2-0.7c0-0.3-0.1-0.5-0.3-0.7s-0.4-0.3-0.7-0.4
				c-0.3-0.1-0.6-0.2-1-0.3s-0.8-0.2-1.1-0.3c-0.4-0.1-0.8-0.2-1.2-0.4c-0.4-0.1-0.7-0.3-1-0.6c-0.3-0.2-0.5-0.5-0.7-0.9
				c-0.2-0.3-0.3-0.8-0.3-1.2c0-0.5,0.1-1,0.3-1.4s0.5-0.7,0.9-1c0.4-0.3,0.8-0.5,1.3-0.6c0.5-0.1,0.9-0.2,1.4-0.2
				c0.6,0,1.1,0.1,1.6,0.2c0.5,0.1,1,0.3,1.4,0.6c0.4,0.3,0.7,0.6,0.9,1.1c0.2,0.4,0.3,1,0.3,1.6h-2.2c0-0.3-0.1-0.6-0.2-0.8
				c-0.1-0.2-0.3-0.4-0.5-0.5s-0.4-0.2-0.6-0.3c-0.2,0-0.5-0.1-0.8-0.1c-0.2,0-0.4,0-0.6,0.1c-0.2,0-0.4,0.1-0.5,0.2
				c-0.2,0.1-0.3,0.2-0.4,0.4c-0.1,0.1-0.1,0.3-0.1,0.6c0,0.2,0,0.4,0.1,0.5s0.2,0.2,0.5,0.4c0.2,0.1,0.6,0.2,1,0.3s0.9,0.2,1.6,0.4
				c0.2,0,0.5,0.1,0.8,0.2s0.7,0.3,1,0.5c0.3,0.2,0.6,0.5,0.9,0.9c0.3,0.4,0.4,0.9,0.4,1.5c0,0.5-0.1,0.9-0.3,1.3
				c-0.2,0.4-0.5,0.8-0.8,1.1s-0.8,0.5-1.4,0.7s-1.2,0.3-1.9,0.3c-0.6,0-1.1-0.1-1.7-0.2c-0.5-0.1-1-0.4-1.5-0.7
				c-0.4-0.3-0.8-0.7-1-1.2c-0.2-0.5-0.4-1-0.4-1.7h2.2C201.7,75,201.8,75.3,201.9,75.6z"/>
			<path class="st5" d="M209.6,70.7c0.2-0.7,0.6-1.3,1-1.8c0.4-0.5,1-0.9,1.6-1.2c0.6-0.3,1.4-0.4,2.2-0.4c0.8,0,1.5,0.1,2.2,0.4
				s1.2,0.7,1.6,1.2c0.4,0.5,0.8,1.1,1,1.8c0.2,0.7,0.4,1.4,0.4,2.2c0,0.8-0.1,1.5-0.4,2.2c-0.2,0.7-0.6,1.2-1,1.7
				c-0.4,0.5-1,0.9-1.6,1.2s-1.4,0.4-2.2,0.4c-0.8,0-1.5-0.1-2.2-0.4c-0.6-0.3-1.2-0.7-1.6-1.2c-0.4-0.5-0.8-1.1-1-1.7
				c-0.2-0.7-0.4-1.4-0.4-2.2C209.3,72.1,209.4,71.4,209.6,70.7z M211.8,74.2c0.1,0.4,0.3,0.8,0.5,1.1c0.2,0.3,0.5,0.6,0.9,0.8
				s0.8,0.3,1.3,0.3c0.5,0,1-0.1,1.3-0.3c0.4-0.2,0.7-0.5,0.9-0.8s0.4-0.7,0.5-1.1c0.1-0.4,0.2-0.9,0.2-1.3c0-0.5-0.1-0.9-0.2-1.3
				c-0.1-0.4-0.3-0.8-0.5-1.2c-0.2-0.3-0.5-0.6-0.9-0.8c-0.4-0.2-0.8-0.3-1.3-0.3c-0.5,0-1,0.1-1.3,0.3s-0.7,0.5-0.9,0.8
				c-0.2,0.3-0.4,0.7-0.5,1.2c-0.1,0.4-0.2,0.9-0.2,1.3C211.6,73.4,211.7,73.8,211.8,74.2z"/>
			<path class="st5" d="M223,75.6c0.1,0.2,0.3,0.4,0.5,0.6c0.2,0.2,0.5,0.3,0.7,0.3c0.3,0.1,0.6,0.1,0.9,0.1c0.2,0,0.4,0,0.7-0.1
				c0.2,0,0.5-0.1,0.7-0.2s0.4-0.2,0.5-0.4c0.1-0.2,0.2-0.4,0.2-0.7c0-0.3-0.1-0.5-0.3-0.7s-0.4-0.3-0.7-0.4s-0.6-0.2-1-0.3
				s-0.8-0.2-1.1-0.3c-0.4-0.1-0.8-0.2-1.2-0.4c-0.4-0.1-0.7-0.3-1-0.6c-0.3-0.2-0.5-0.5-0.7-0.9c-0.2-0.3-0.3-0.8-0.3-1.2
				c0-0.5,0.1-1,0.3-1.4c0.2-0.4,0.5-0.7,0.9-1c0.4-0.3,0.8-0.5,1.3-0.6c0.5-0.1,0.9-0.2,1.4-0.2c0.6,0,1.1,0.1,1.6,0.2
				c0.5,0.1,1,0.3,1.4,0.6s0.7,0.6,0.9,1.1c0.2,0.4,0.3,1,0.3,1.6h-2.2c0-0.3-0.1-0.6-0.2-0.8s-0.3-0.4-0.5-0.5s-0.4-0.2-0.6-0.3
				c-0.2,0-0.5-0.1-0.8-0.1c-0.2,0-0.4,0-0.6,0.1c-0.2,0-0.4,0.1-0.5,0.2c-0.2,0.1-0.3,0.2-0.4,0.4c-0.1,0.1-0.1,0.3-0.1,0.6
				c0,0.2,0,0.4,0.1,0.5c0.1,0.1,0.2,0.2,0.5,0.4c0.2,0.1,0.6,0.2,1,0.3c0.4,0.1,0.9,0.2,1.6,0.4c0.2,0,0.5,0.1,0.8,0.2
				c0.4,0.1,0.7,0.3,1,0.5c0.3,0.2,0.6,0.5,0.9,0.9c0.3,0.4,0.4,0.9,0.4,1.5c0,0.5-0.1,0.9-0.3,1.3c-0.2,0.4-0.5,0.8-0.8,1.1
				s-0.8,0.5-1.4,0.7c-0.5,0.2-1.2,0.3-1.9,0.3c-0.6,0-1.1-0.1-1.7-0.2c-0.5-0.1-1-0.4-1.5-0.7c-0.4-0.3-0.8-0.7-1-1.2
				c-0.2-0.5-0.4-1-0.4-1.7h2.2C222.8,75,222.9,75.3,223,75.6z"/>
			<path class="st5" d="M232.6,75.6c0.1,0.2,0.3,0.4,0.5,0.6s0.5,0.3,0.7,0.3c0.3,0.1,0.6,0.1,0.9,0.1c0.2,0,0.4,0,0.7-0.1
				c0.2,0,0.5-0.1,0.7-0.2c0.2-0.1,0.4-0.2,0.5-0.4c0.1-0.2,0.2-0.4,0.2-0.7c0-0.3-0.1-0.5-0.3-0.7s-0.4-0.3-0.7-0.4
				c-0.3-0.1-0.6-0.2-1-0.3s-0.8-0.2-1.1-0.3c-0.4-0.1-0.8-0.2-1.2-0.4c-0.4-0.1-0.7-0.3-1-0.6c-0.3-0.2-0.5-0.5-0.7-0.9
				c-0.2-0.3-0.3-0.8-0.3-1.2c0-0.5,0.1-1,0.3-1.4s0.5-0.7,0.9-1c0.4-0.3,0.8-0.5,1.3-0.6c0.5-0.1,0.9-0.2,1.4-0.2
				c0.6,0,1.1,0.1,1.6,0.2c0.5,0.1,1,0.3,1.4,0.6c0.4,0.3,0.7,0.6,0.9,1.1c0.2,0.4,0.3,1,0.3,1.6h-2.2c0-0.3-0.1-0.6-0.2-0.8
				c-0.1-0.2-0.3-0.4-0.5-0.5s-0.4-0.2-0.6-0.3c-0.2,0-0.5-0.1-0.8-0.1c-0.2,0-0.4,0-0.6,0.1c-0.2,0-0.4,0.1-0.5,0.2
				c-0.2,0.1-0.3,0.2-0.4,0.4c-0.1,0.1-0.1,0.3-0.1,0.6c0,0.2,0,0.4,0.1,0.5s0.2,0.2,0.5,0.4c0.2,0.1,0.6,0.2,1,0.3s0.9,0.2,1.6,0.4
				c0.2,0,0.5,0.1,0.8,0.2s0.7,0.3,1,0.5c0.3,0.2,0.6,0.5,0.9,0.9c0.3,0.4,0.4,0.9,0.4,1.5c0,0.5-0.1,0.9-0.3,1.3
				c-0.2,0.4-0.5,0.8-0.8,1.1s-0.8,0.5-1.4,0.7s-1.2,0.3-1.9,0.3c-0.6,0-1.1-0.1-1.7-0.2c-0.5-0.1-1-0.4-1.5-0.7
				c-0.4-0.3-0.8-0.7-1-1.2c-0.2-0.5-0.4-1-0.4-1.7h2.2C232.4,75,232.5,75.3,232.6,75.6z"/>
		</g>
	</g>
</g>
</svg>
